<svg width="100" height="100" viewBox="0 0 100 100" fill="none" xmlns="http://www.w3.org/2000/svg">
<path d="M96.7968 42.6172L87.1875 24.2188C86.6201 23.1284 85.6471 22.3044 84.478 21.9245C83.309 21.5446 82.0375 21.639 80.9375 22.1876L71.5234 26.9141H64.414L51.2109 20.9376C50.1936 20.4718 49.0424 20.3886 47.9687 20.7032L28.3593 26.4063L19.0625 21.7579C17.9624 21.2093 16.6909 21.1149 15.5219 21.4948C14.3529 21.8747 13.3798 22.6987 12.8125 23.7891L3.20309 42.1876C2.91305 42.7422 2.73608 43.349 2.68243 43.9726C2.62879 44.5962 2.69954 45.2243 2.89059 45.8204C3.29713 47.0081 4.1524 47.9896 5.2734 48.5547L14.8047 53.3204L36.0156 69.9219C36.5428 70.3155 37.139 70.607 37.7734 70.7813L60.3906 76.4063C60.7586 76.5131 61.1402 76.5658 61.5234 76.5626C62.1405 76.5706 62.7528 76.4537 63.3235 76.2187C63.8941 75.9837 64.4113 75.6356 64.8437 75.1954L79.2187 60.8204L79.2968 60.7422L85.3515 53.6719L94.7265 48.9844C95.2867 48.7018 95.7856 48.3113 96.1945 47.8353C96.6034 47.3594 96.9143 46.8074 97.1093 46.211C97.3016 45.6217 97.3729 44.9998 97.3192 44.3823C97.2655 43.7648 97.0879 43.1645 96.7968 42.6172ZM77.8906 57.6172L61.875 45.9376C61.6003 45.7403 61.269 45.6375 60.931 45.6445C60.5929 45.6515 60.2662 45.7681 60 45.9766L55 49.7266C53.1017 51.1346 50.8009 51.8948 48.4375 51.8948C46.074 51.8948 43.7732 51.1346 41.875 49.7266L39.7656 48.1251C39.5806 47.9978 39.4277 47.8291 39.3193 47.6325C39.2108 47.4359 39.1496 47.2166 39.1406 46.9922C39.1156 46.7676 39.1452 46.5402 39.2268 46.3294C39.3084 46.1186 39.4396 45.9306 39.6093 45.7813L54.8828 30.4688C55.1797 30.1922 55.5707 30.0386 55.9765 30.0391H70.9375L82.5 52.1876L77.8906 57.6172ZM5.8984 44.8438C5.82287 44.6484 5.79074 44.4388 5.80422 44.2297C5.81771 44.0206 5.87651 43.817 5.97653 43.6329L15.5859 25.2344C15.7187 24.9787 15.9213 24.7659 16.1703 24.6207C16.4192 24.4755 16.7042 24.4039 16.9922 24.4141C17.2235 24.4056 17.4529 24.4596 17.6562 24.5704L26.0156 28.711L14.9609 49.8829L6.67965 45.7422C6.49011 45.6611 6.32138 45.5381 6.18609 45.3825C6.0508 45.2269 5.95245 45.0428 5.8984 44.8438ZM62.6562 72.9688C62.4631 73.1568 62.2267 73.2944 61.9678 73.3694C61.7089 73.4443 61.4355 73.4543 61.1718 73.3985L38.5156 67.7344C38.3067 67.6758 38.1088 67.5834 37.9296 67.461L17.6172 51.5626L29.1796 29.4141L48.8281 23.711C49.1897 23.6004 49.5796 23.6282 49.9218 23.7891L56.8359 26.9141H55.9765C55.3601 26.9105 54.7491 27.0294 54.179 27.2642C53.609 27.4989 53.0914 27.8446 52.6562 28.2813L37.3828 43.5547C36.9072 44.0301 36.5395 44.6021 36.3045 45.2321C36.0696 45.8621 35.9729 46.5353 36.0211 47.2059C36.0692 47.8766 36.2611 48.529 36.5837 49.119C36.9063 49.7089 37.352 50.2226 37.8906 50.6251L40 52.2266C42.4416 54.0344 45.3994 55.0102 48.4375 55.0102C51.4755 55.0102 54.4333 54.0344 56.875 52.2266L60.9375 49.1407L75.7421 59.8829L62.6562 72.9688ZM94.1015 45.2735C94.0404 45.4691 93.9394 45.6499 93.8049 45.8045C93.6705 45.9591 93.5055 46.0842 93.3203 46.1719L85.039 50.3126L73.9843 29.1407L82.3437 25.0001C82.7075 24.8203 83.1269 24.789 83.5133 24.9129C83.8997 25.0369 84.2227 25.3063 84.414 25.6641L94.0234 44.0626C94.1234 44.2467 94.1822 44.4503 94.1957 44.6594C94.2092 44.8685 94.1771 45.0781 94.1015 45.2735Z" fill="black"/>
</svg>
