<svg width="30" height="30" viewBox="0 0 30 30" fill="none" xmlns="http://www.w3.org/2000/svg">
<path fill-rule="evenodd" clip-rule="evenodd" d="M9.5938 18.6237L2.8688 25.3487C2.63242 25.5853 2.4997 25.906 2.49981 26.2404C2.49993 26.5748 2.63288 26.8955 2.86942 27.1319C3.10596 27.3682 3.42671 27.501 3.76111 27.5008C4.09551 27.5007 4.41617 27.3678 4.65255 27.1312L11.3775 20.4062C13.3879 21.9633 15.9159 22.6961 18.4474 22.4554C20.9788 22.2148 23.3235 21.0188 25.0044 19.1108C26.6854 17.2027 27.5763 14.726 27.496 12.1844C27.4157 9.64284 26.3701 7.22731 24.572 5.42924C22.774 3.63117 20.3584 2.58563 17.8169 2.5053C15.2753 2.42497 12.7986 3.3159 10.8905 4.99684C8.98251 6.67778 7.78652 9.02246 7.54586 11.5539C7.3052 14.0853 8.03795 16.6134 9.59505 18.6237H9.5938ZM17.5 20C15.5109 20 13.6033 19.2098 12.1967 17.8033C10.7902 16.3968 10 14.4891 10 12.5C10 10.5109 10.7902 8.60321 12.1967 7.19668C13.6033 5.79016 15.5109 4.99999 17.5 4.99999C19.4892 4.99999 21.3968 5.79016 22.8033 7.19668C24.2099 8.60321 25 10.5109 25 12.5C25 14.4891 24.2099 16.3968 22.8033 17.8033C21.3968 19.2098 19.4892 20 17.5 20Z" fill="#616161"/>
</svg>
